<?xml version="1.0" ?><!DOCTYPE svg  PUBLIC '-//W3C//DTD SVG 1.1//EN'  'http://www.w3.org/Graphics/SVG/1.1/DTD/svg11.dtd'><svg height="512px" style="enable-background:new 0 0 512 512;" version="1.1" viewBox="0 0 512 512" width="512px" xml:space="preserve" xmlns="http://www.w3.org/2000/svg" xmlns:xlink="http://www.w3.org/1999/xlink"><g id="Boy_x2C__child_x2C__school_boy_x2C__student_x2C_"><g><path d="M255.999,494.866c131.895,0,239.464-107.563,239.464-239.462    C495.463,123.567,387.894,16,255.999,16S16.537,123.567,16.537,255.404C16.537,387.303,124.104,494.866,255.999,494.866    L255.999,494.866z" style="fill-rule:evenodd;clip-rule:evenodd;fill:#1C1C1C;"/><path d="M286.156,492.962c-27.13-0.395-54.372-1.348-80.942-3.528    c-1.624-0.338-3.25-0.732-4.819-1.071C94.956,463.256,16.537,368.524,16.537,255.404c0-16.592,1.683-32.791,4.933-48.428    l223.318-79.262l41.425,365.248H286.156z" style="fill-rule:evenodd;clip-rule:evenodd;fill:#0A0A0A;"/><path d="M176.851,199.912c31.84-3.083,58.129-0.617,83.128,6.616    c20.461-15.864,44.562-21.863,68.387-19.956c3.14,40.862,5.101,92.096-23.935,124.496c-31.896,31.893-62.949,33.69-94.843,1.403    C187.727,281.136,176.851,243.578,176.851,199.912L176.851,199.912z" style="fill-rule:evenodd;clip-rule:evenodd;fill:#D1D1D1;"/><path d="M323.318,251.929c0.73-15.752,6.952-24.104,9.925-13.731    c1.961,6.78-3.364,28.251-8.186,32.456c-1.683,1.454-2.522-2.913-4.148-1.347C322.31,263.812,322.31,257.927,323.318,251.929    L323.318,251.929z" style="fill-rule:evenodd;clip-rule:evenodd;fill:#D1D1D1;"/><path d="M203.477,226.256c7.567-2.632,19.283-3.14,27.074-1.345    c0.113,2.131,0.225,4.261,0.28,6.389c-7.736-1.4-19.451-0.84-27.018,1.403C203.701,230.573,203.59,228.443,203.477,226.256    L203.477,226.256z" style="fill-rule:evenodd;clip-rule:evenodd;fill:#858585;"/><path d="M176.851,199.912c7.008-0.783,14.183-1.178,21.245-1.234    c1.514,22.253-11.323,34.418-6.11,57.961c-1.289,0-2.018,0-3.307,0c-2.467-11.771-5.268-21.861-9.305-21.805    C177.748,224.016,176.796,211.124,176.851,199.912L176.851,199.912z" style="fill-rule:evenodd;clip-rule:evenodd;fill:#626262;"/><path d="M187.444,252.491c-2.241-15.471-8.799-23.093-11.771-13.286    c-2.745,7.456,6.055,28.536,12.948,31.725c2.018,0.901,2.131-3.189,3.924-1.905C190.528,263.812,189.184,258.321,187.444,252.491    L187.444,252.491z" style="fill-rule:evenodd;clip-rule:evenodd;fill:#D1D1D1;"/><path d="M328.365,186.572c-6.557-1.121-18.33-0.504-25.898,1.178    c11.66,12.557,19.62,44.841,17.042,68.832c1.347,0,2.018,0,3.309,0c1.121-11.995,3.195-22.531,7.23-22.923    C330.549,222.951,329.484,195.764,328.365,186.572L328.365,186.572z" style="fill-rule:evenodd;clip-rule:evenodd;fill:#626262;"/><path d="M306.504,226.256c-7.509-2.632-19.226-3.14-27.021-1.345    c-0.109,2.131-0.223,4.261-0.332,6.389c7.788-1.4,19.505-0.84,27.074,1.403C306.335,230.573,306.448,228.443,306.504,226.256    L306.504,226.256z" style="fill-rule:evenodd;clip-rule:evenodd;fill:#858585;"/><path d="M262.277,204.621c8.465-6.783,26.291-15.135,40.189-16.871    c8.465,15.132,14.241,46.301-5.492,53.528C295.743,226.538,280.605,206.133,262.277,204.621L262.277,204.621z" style="fill-rule:evenodd;clip-rule:evenodd;fill:#626262;"/><path d="M214.07,237.187c2.86,0,5.158,3.699,5.158,8.295    c0,4.597-2.298,8.353-5.158,8.353c-2.802,0-5.1-3.756-5.1-8.353C208.971,240.886,211.269,237.187,214.07,237.187L214.07,237.187z" style="fill-rule:evenodd;clip-rule:evenodd;fill:#555555;"/><path d="M287.67,237.187c2.804,0,5.103,3.699,5.103,8.295    c0,4.597-2.299,8.353-5.103,8.353c-2.86,0-5.101-3.756-5.101-8.353C282.569,240.886,284.81,237.187,287.67,237.187L287.67,237.187    z" style="fill-rule:evenodd;clip-rule:evenodd;fill:#555555;"/><path d="M254.486,248.117    c25.336,10.596,30.943,36.83-4.989,22.593" style="fill:none;stroke:#8E8E8E;stroke-width:0.4819;stroke-miterlimit:10;"/><path d="M281.338,287.747L281.338,287.747    c0,10.708-11.103,19.398-24.834,19.398c-13.678,0-24.831-8.69-24.831-19.398l0,0H281.338z" style="fill-rule:evenodd;clip-rule:evenodd;fill:#747474;"/><path d="M281.338,287.747L281.338,287.747    c0,4.937-11.103,8.915-24.834,8.915c-13.678,0-24.831-3.979-24.831-8.915l0,0H281.338z" style="fill-rule:evenodd;clip-rule:evenodd;fill:#FEFEFE;"/><path d="M219.453,373.286l33.744,14.518l38.564-14.016l1.064,119.737    c-7.118,1.115-32.396,4.091-39.574,1.341v-0.226c-6.838,0.395-28.418-0.501-34.977-1.566L219.453,373.286z" style="fill-rule:evenodd;clip-rule:evenodd;fill:#202020;"/><path d="M93.836,432.591l33.24-59.022l-2.803,82.958    C113.455,449.353,103.309,441.338,93.836,432.591L93.836,432.591z" style="fill-rule:evenodd;clip-rule:evenodd;fill:#C3C3C3;"/><path d="M418.163,433.431l-33.688-59.862l2.805,83.854    C398.04,450.248,408.689,442.178,418.163,433.431L418.163,433.431z" style="fill-rule:evenodd;clip-rule:evenodd;fill:#C3C3C3;"/><path d="M247.928,131.75c53.363-3.53,81.503,19.396,81.557,71.749    l-152.24,10.091C172.087,164.71,194.508,135.284,247.928,131.75L247.928,131.75z" style="fill-rule:evenodd;clip-rule:evenodd;fill:#585858;"/><path d="M247.928,131.75c53.363-3.53,81.503,19.396,81.557,71.749    l-77.296,5.104c-1.402-25.339-3.588-50.899-6.95-76.683C246.134,131.863,247.03,131.806,247.928,131.75L247.928,131.75z" style="fill-rule:evenodd;clip-rule:evenodd;fill:#3F3F3F;"/><path d="M244.788,127.714c3.924-0.392,7.231,0.223,7.344,1.401    c0.168,1.233-2.915,2.524-6.894,2.97c-3.925,0.451-7.232-0.166-7.4-1.4C237.726,129.51,240.809,128.163,244.788,127.714    L244.788,127.714z" style="fill-rule:evenodd;clip-rule:evenodd;fill:#202020;"/><path d="M251.234,181.694c18.666-1.234,28.531,6.783,28.531,25.113    l-53.306,3.53C224.666,193.242,232.513,182.925,251.234,181.694L251.234,181.694z" style="fill-rule:evenodd;clip-rule:evenodd;fill:#202020;"/><path d="M177.244,213.589c0.504,5.887,1.232,12.613,1.737,18.553    c-1.849,3.869-4.148,4.878-8.464,3.982L177.244,213.589z" style="fill-rule:evenodd;clip-rule:evenodd;fill:#202020;"/><path d="M226.627,200.472c17.32-1.064,34.698-2.073,52.073-3.139    c0.84,3.083,1.122,6.278,1.065,9.474c-17.77,1.175-35.536,2.353-53.306,3.53C226.066,207.03,226.066,203.778,226.627,200.472    L226.627,200.472z" style="fill-rule:evenodd;clip-rule:evenodd;fill:#6D6D6D;"/><path d="M219.9,321.719c23.264,16.142,49.047,17.319,71.356,0.84    c0,8.91,0.505,46.692,0.561,55.608c-12.443,4.48-24.888,10.145-37.611,9.693c-11.548-0.395-24.496-5.827-34.753-9.925    C219.396,369.308,219.956,330.348,219.9,321.719L219.9,321.719z" style="fill-rule:evenodd;clip-rule:evenodd;fill:#B5B5B5;"/><path d="M384.588,373.568c-8.97-6.616-83.074-30.27-93.162-34.53    l-10.651,24.555l12.165,128.473c28.644,0.057,71.805-19.393,95.627-35.37L384.588,373.568z" style="fill-rule:evenodd;clip-rule:evenodd;fill:#525252;"/><path d="M126.626,372.892c9.026-6.61,83.073-30.207,93.162-34.468    l10.539,19.167L218.499,492.68c-32.79-1.566-74.887-20.401-95.739-37.557L126.626,372.892z" style="fill-rule:evenodd;clip-rule:evenodd;fill:#525252;"/><path d="M291.257,322.559c2.524,0.445,4.486,2.745,4.599,5.495    l-4.486,11.993C291.369,336.795,291.257,324.351,291.257,322.559L291.257,322.559z M295.855,328.054c0,0.112,0,0.22,0,0.276    c0,0.338-0.057,0.676-0.057,0.952L295.855,328.054z" style="fill-rule:evenodd;clip-rule:evenodd;fill:#464646;"/><path d="M273.994,358.374l21.861-30.32l-1.009,17.713l-19.004,26.849    L273.994,358.374z M277.134,359.495c0.896,0,1.623,1.517,1.623,3.422c0,1.848-0.728,3.364-1.623,3.364    c-0.899,0-1.629-1.517-1.629-3.364C275.505,361.012,276.234,359.495,277.134,359.495L277.134,359.495z" style="fill-rule:evenodd;clip-rule:evenodd;fill:#4F4F4F;"/><path d="M277.134,359.495c0.896,0,1.623,1.517,1.623,3.422    c0,1.848-0.728,3.364-1.623,3.364c-0.899,0-1.629-1.517-1.629-3.364C275.505,361.012,276.234,359.495,277.134,359.495    L277.134,359.495z M277.134,360.729c0.558,0,1.065,0.953,1.065,2.188c0,1.178-0.508,2.13-1.065,2.13    c-0.563,0-1.009-0.952-1.009-2.13C276.125,361.683,276.57,360.729,277.134,360.729L277.134,360.729z" style="fill-rule:evenodd;clip-rule:evenodd;fill:#999999;"/><path d="M219.9,321.775c-2.521,0.445-4.484,2.688-4.596,5.489    l4.427,11.942C219.788,335.955,219.9,323.512,219.9,321.775L219.9,321.775z M215.305,327.265c0,0.057,0,0.169,0,0.282    c0,0.338,0,0.619,0.055,0.952L215.305,327.265z" style="fill-rule:evenodd;clip-rule:evenodd;fill:#464646;"/><polygon points="237.166,357.534 215.305,327.265 216.313,344.978     235.316,371.827   " style="fill-rule:evenodd;clip-rule:evenodd;fill:#4F4F4F;"/></g></g><g id="Layer_1"/></svg>